<?xml version="1.0" encoding="UTF-8"?>
<!-- Created with EazyDraw for Mac ( https://www.eazydraw.com/ ) -->

<svg
    version="1.1"
    xmlns:dc="http://purl.org/dc/elements/1.1/"
    xmlns:cc="http://creativecommons.org/ns#"
    xmlns:rdf="http://www.w3.org/1999/02/22-rdf-syntax-ns#"
    xmlns:svg="http://www.w3.org/2000/svg"
    xmlns:xlink="http://www.w3.org/1999/xlink"
    xmlns="http://www.w3.org/2000/svg"
    width="96.03538"
    height="54.55476"
    viewBox="0, 0, 96.03538, 54.55476"
    preserveAspectRatio="none"
    id="svg2">
   <defs
       id="defs_7B8BE352"/>
   <metadata
       id="metadata7">
      <rdf:RDF>
         <cc:Work
             rdf:about="">
            <dc:format>image/svg+xml</dc:format>
            <dc:type rdf:resource="http://purl.org/dc/dcmitype/StillImage"/>
            <dc:title></dc:title>
         </cc:Work>
      </rdf:RDF>
   </metadata>
   <g
       id="layer_Paper"
       style="fill:#000000;fill-opacity:1;stroke:#000000;stroke-opacity:1;fill-rule:nonzero;stroke-linecap:square;stroke-linejoin:miter;stroke-width:1;stroke-miterlimit:10">
      <path
          style="stroke:none"
          id="D8F1A052"
          d="M96.03538,51.2032 L96.03538,3.351599999976 C96.03538,0.992700000006 94.51938,0 92.96938,0 C92.29738,0 91.62138,0.205600000014 91.03238,0.525900000018 L50.89268,24.6309 C49.62268,25.3999 48.94688,26.086 48.94688,27.2774
C48.94688,28.4688 49.62268,29.1548 50.89268,29.9239 L91.03238,54.02887 C91.62138,54.34919 92.29738,54.55476 92.96938,54.55476 C94.51938,54.55476 96.03538,53.56207 96.03538,51.2032 z M93.81838,51.125 C93.81838,51.8789 93.39238,52.2627 92.86838,52.2627
C92.62838,52.2627 92.34838,52.2139 92.06938,52.0288 L51.76728,27.9961 C51.38688,27.7588 51.24378,27.5181 51.24378,27.2774 C51.24378,27.0367 51.38688,26.7959 51.76728,26.5586 L92.06938,2.526000000022 C92.34838,2.340900000003 92.62838,2.292099999979 92.86838,2.292099999979
C93.39238,2.292099999979 93.81838,2.6759 93.81838,3.429799999984 z M49.14218,51.2032 L49.14218,3.351599999976 C49.14218,0.992700000006 47.62608,0 46.03378,0 C45.40338,0 44.72758,0.205600000014 44.14268,0.525900000018
L4.002479999974,24.6309 C2.729080000037,25.3999 2.011280000014,26.086 2.011280000014,27.2774 C2.011280000014,28.4688 2.729080000037,29.1548 4.002479999974,29.9239 L44.14268,54.02887 C44.72758,54.34919 45.40338,54.55476 46.03378,54.55476
C47.62608,54.55476 49.14218,53.56207 49.14218,51.2032 z M46.92438,51.125 C46.92438,51.8789 46.49858,52.2627 45.97518,52.2627 C45.73788,52.2627 45.45518,52.2139 45.17588,52.0288 L4.877080000024,27.9961 C4.493279999986,27.7588 4.350179999983,27.5181 4.350179999983,27.2774
C4.350179999983,27.0367 4.493279999986,26.7959 4.877080000024,26.5586 L45.17588,2.526000000022 C45.45518,2.340900000003 45.73788,2.292099999979 45.97518,2.292099999979 C46.49858,2.292099999979 46.92438,2.6759 46.92438,3.429799999984
z M1.125980000004,54.55476 C1.727079999987,54.55476 2.206579999989,54.03326 2.206579999989,53.4356 L2.206579999989,1.119199999988 C2.206579999989,0.521499999979 1.727079999987,0 1.125980000004,0 C0.479479999962,0 0,0.521499999979 0,1.119199999988
L0,53.4356 C0,54.03326 0.479479999962,54.55476 1.125980000004,54.55476 z"/>
   </g>
</svg>
